ffmpeg started on 2025-06-09 at 18:16:03
Report written to "D:\Convert\FFMetrics\reports\psnr_report-6.txt"
Log level: 32
Command line:
ffmpeg -hide_banner -nostdin -i "G:\\\xc0\xed\xe8\xec\xe5\\\xce\xed\xe3\xee\xe8\xed\xe3\xe8\\!_30_\xc2\xe5\xf1\xed\xe0_2023\\\xd1\xeb\xe8\xf8\xea\xee\xec \xec\xe8\xeb\xfb\xe9 \xea\xf0\xe8\xe7\xe8\xf1\\Kawaisugi_Crisis_[11]_[AniLibria_TV]_[WEBRip_1080p]_HEVC.mkv" -i "G:\\\xc0\xed\xe8\xec\xe5\\\xce\xed\xe3\xee\xe8\xed\xe3\xe8\\!_30_\xc2\xe5\xf1\xed\xe0_2023\\\xd1\xeb\xe8\xf8\xea\xee\xec \xec\xe8\xeb\xfb\xe9 \xea\xf0\xe8\xe7\xe8\xf1\\Kawaisugi_Crisis_[11]_[AniLibria_TV]_[WEBRip_1080p].mkv" -lavfi "[0:v]settb=AVTB,setpts=PTS-STARTPTS,format=pix_fmts=yuv420p10,fps=24000/1001,scale=1920:1080:flags=bicubic[main];[1:v]settb=AVTB,setpts=PTS-STARTPTS,format=pix_fmts=yuv420p,fps=24000/1001,scale=1920:1080:flags=bicubic[ref];[main][ref]psnr=eof_action=endall:stats_file='D\\:/Convert/FFMetrics/logs/psnr_logfile-6.txt'" -f null -
Input #0, matroska,webm, from 'G:\Аниме\Онгоинги\!_30_Весна_2023\Слишком милый кризис\Kawaisugi_Crisis_[11]_[AniLibria_TV]_[WEBRip_1080p]_HEVC.mkv':
  Metadata:
    ENCODER         : Lavf61.7.100
  Duration: 00:23:42.53, start: -0.021000, bitrate: 979 kb/s
  Stream #0:0(jpn): Video: hevc (Main 10), yuv420p10le(pc, bt709, progressive), 1920x1080 [SAR 1:1 DAR 16:9], 23.98 fps, 23.98 tbr, 1k tbn (default) (forced)
      Metadata:
        title           : Original
        ENCODER         : Lavc61.19.100 libx265
        BPS             : 781000
        DURATION        : 00:23:42.504708333
        NUMBER_OF_FRAMES: 34106
        NUMBER_OF_BYTES : 138872115
        _STATISTICS_WRITING_APP: mkvpropedit v66.0.0 ('Josie') 64-bit
        _STATISTICS_WRITING_DATE_UTC: 2025-06-09 14:23:37
        _STATISTICS_TAGS: BPS DURATION NUMBER_OF_FRAMES NUMBER_OF_BYTES
  Stream #0:1(rus): Audio: aac (LC), 48000 Hz, stereo, fltp (default) (forced)
      Metadata:
        title           : AniLibria.TV
        ENCODER         : Lavc61.19.100 aac
        BPS             : 193797
        DURATION        : 00:23:42.506000000
        NUMBER_OF_FRAMES: 66681
        NUMBER_OF_BYTES : 34459789
        _STATISTICS_WRITING_APP: mkvpropedit v66.0.0 ('Josie') 64-bit
        _STATISTICS_WRITING_DATE_UTC: 2025-06-09 14:23:37
        _STATISTICS_TAGS: BPS DURATION NUMBER_OF_FRAMES NUMBER_OF_BYTES
  Stream #0:2(rus): Subtitle: ass (ssa) (default) (forced)
      Metadata:
        title           : Надписи
        BPS             : 0
        DURATION        : 00:00:00.000000000
        NUMBER_OF_FRAMES: 0
        NUMBER_OF_BYTES : 0
        _STATISTICS_WRITING_APP: mkvpropedit v66.0.0 ('Josie') 64-bit
        _STATISTICS_WRITING_DATE_UTC: 2025-06-09 14:23:37
        _STATISTICS_TAGS: BPS DURATION NUMBER_OF_FRAMES NUMBER_OF_BYTES
  Stream #0:3(rus): Subtitle: ass (ssa)
      Metadata:
        title           : Субтитры
        BPS             : 188
        DURATION        : 00:23:39.000000000
        NUMBER_OF_FRAMES: 362
        NUMBER_OF_BYTES : 33448
        _STATISTICS_WRITING_APP: mkvpropedit v66.0.0 ('Josie') 64-bit
        _STATISTICS_WRITING_DATE_UTC: 2025-06-09 14:23:37
        _STATISTICS_TAGS: BPS DURATION NUMBER_OF_FRAMES NUMBER_OF_BYTES
Input #1, matroska,webm, from 'G:\Аниме\Онгоинги\!_30_Весна_2023\Слишком милый кризис\Kawaisugi_Crisis_[11]_[AniLibria_TV]_[WEBRip_1080p].mkv':
  Metadata:
    encoder         : libebml v1.4.2 + libmatroska v1.6.4
    creation_time   : 2025-01-14T16:54:49.000000Z
  Duration: 00:23:42.51, start: 0.000000, bitrate: 1901 kb/s
  Stream #1:0(jpn): Video: h264 (High), yuvj420p(pc, bt709, progressive), 1920x1080 [SAR 1:1 DAR 16:9], 23.98 fps, 23.98 tbr, 1k tbn (default) (forced)
      Metadata:
        title           : Original
        BPS             : 1700556
        DURATION        : 00:23:42.505000000
        NUMBER_OF_FRAMES: 34106
        NUMBER_OF_BYTES : 302381208
        _STATISTICS_WRITING_APP: mkvmerge v66.0.0 ('Josie') 64-bit
        _STATISTICS_WRITING_DATE_UTC: 2025-01-14 16:54:49
        _STATISTICS_TAGS: BPS DURATION NUMBER_OF_FRAMES NUMBER_OF_BYTES
  Stream #1:1(rus): Audio: aac (LC), 48000 Hz, stereo, fltp (default) (forced)
      Metadata:
        title           : AniLibria.TV
        BPS             : 192088
        DURATION        : 00:23:42.506000000
        NUMBER_OF_FRAMES: 66680
        NUMBER_OF_BYTES : 34155808
        _STATISTICS_WRITING_APP: mkvmerge v66.0.0 ('Josie') 64-bit
        _STATISTICS_WRITING_DATE_UTC: 2025-01-14 16:54:49
        _STATISTICS_TAGS: BPS DURATION NUMBER_OF_FRAMES NUMBER_OF_BYTES
  Stream #1:2(rus): Subtitle: ass (ssa) (default) (forced)
      Metadata:
        title           : Надписи
        BPS             : 0
        DURATION        : 00:00:00.000000000
        NUMBER_OF_FRAMES: 0
        NUMBER_OF_BYTES : 0
        _STATISTICS_WRITING_APP: mkvmerge v66.0.0 ('Josie') 64-bit
        _STATISTICS_WRITING_DATE_UTC: 2025-01-14 16:54:49
        _STATISTICS_TAGS: BPS DURATION NUMBER_OF_FRAMES NUMBER_OF_BYTES
  Stream #1:3(rus): Subtitle: ass (ssa)
      Metadata:
        title           : Субтитры
        BPS             : 188
        DURATION        : 00:23:39.000000000
        NUMBER_OF_FRAMES: 362
        NUMBER_OF_BYTES : 33448
        _STATISTICS_WRITING_APP: mkvmerge v66.0.0 ('Josie') 64-bit
        _STATISTICS_WRITING_DATE_UTC: 2025-01-14 16:54:49
        _STATISTICS_TAGS: BPS DURATION NUMBER_OF_FRAMES NUMBER_OF_BYTES
  Stream #1:4: Attachment: ttf
      Metadata:
        filename        : ARIAL.TTF
        mimetype        : application/x-truetype-font
  Stream #1:5: Attachment: ttf
      Metadata:
        filename        : tt0142m.ttf
        mimetype        : application/x-truetype-font
Stream mapping:
  Stream #0:0 (hevc) -> settb:default
  Stream #1:0 (h264) -> settb:default
  psnr:default -> Stream #0:0 (wrapped_avframe)
  Stream #0:1 -> #0:1 (aac (native) -> pcm_s16le (native))
[swscaler @ 00000255a5907b80] deprecated pixel format used, make sure you did set range correctly
Output #0, null, to 'pipe:':
  Metadata:
    encoder         : Lavf61.7.100
  Stream #0:0: Video: wrapped_avframe, yuv420p10le(pc, bt709, progressive), 1920x1080 [SAR 1:1 DAR 16:9], q=2-31, 200 kb/s, 23.98 fps, 23.98 tbn
      Metadata:
        encoder         : Lavc61.19.100 wrapped_avframe
  Stream #0:1(rus): Audio: pcm_s16le, 48000 Hz, stereo, s16, 1536 kb/s (default) (forced)
      Metadata:
        title           : AniLibria.TV
        _STATISTICS_TAGS: BPS DURATION NUMBER_OF_FRAMES NUMBER_OF_BYTES
        BPS             : 193797
        DURATION        : 00:23:42.506000000
        NUMBER_OF_FRAMES: 66681
        NUMBER_OF_BYTES : 34459789
        _STATISTICS_WRITING_APP: mkvpropedit v66.0.0 ('Josie') 64-bit
        _STATISTICS_WRITING_DATE_UTC: 2025-06-09 14:23:37
        encoder         : Lavc61.19.100 pcm_s16le
frame=  147 fps=0.0 q=-0.0 size=N/A time=00:00:06.13 bitrate=N/A speed=11.8x    frame=  319 fps=311 q=-0.0 size=N/A time=00:00:13.30 bitrate=N/A speed=  13x    frame=  538 fps=350 q=-0.0 size=N/A time=00:00:22.43 bitrate=N/A speed=14.6x    frame=  769 fps=373 q=-0.0 size=N/A time=00:00:32.07 bitrate=N/A speed=15.5x    frame=  994 fps=386 q=-0.0 size=N/A time=00:00:41.45 bitrate=N/A speed=16.1x    frame= 1197 fps=388 q=-0.0 size=N/A time=00:00:49.92 bitrate=N/A speed=16.2x    frame= 1446 fps=401 q=-0.0 size=N/A time=00:01:00.31 bitrate=N/A speed=16.7x    frame= 1666 fps=405 q=-0.0 size=N/A time=00:01:09.48 bitrate=N/A speed=16.9x    frame= 1873 fps=405 q=-0.0 size=N/A time=00:01:18.11 bitrate=N/A speed=16.9x    frame= 2099 fps=407 q=-0.0 size=N/A time=00:01:27.54 bitrate=N/A speed=  17x    frame= 2325 fps=410 q=-0.0 size=N/A time=00:01:36.97 bitrate=N/A speed=17.1x    frame= 2569 fps=415 q=-0.0 size=N/A time=00:01:47.14 bitrate=N/A speed=17.3x    frame= 2809 fps=419 q=-0.0 size=N/A time=00:01:57.15 bitrate=N/A speed=17.5x    frame= 2942 fps=408 q=-0.0 size=N/A time=00:02:02.70 bitrate=N/A speed=  17x    frame= 3121 fps=404 q=-0.0 size=N/A time=00:02:10.17 bitrate=N/A speed=16.8x    frame= 3366 fps=408 q=-0.0 size=N/A time=00:02:20.39 bitrate=N/A speed=  17x    frame= 3595 fps=411 q=-0.0 size=N/A time=00:02:29.94 bitrate=N/A speed=17.1x    frame= 3839 fps=414 q=-0.0 size=N/A time=00:02:40.11 bitrate=N/A speed=17.2x    frame= 4074 fps=416 q=-0.0 size=N/A time=00:02:49.91 bitrate=N/A speed=17.3x    frame= 4311 fps=418 q=-0.0 size=N/A time=00:02:59.80 bitrate=N/A speed=17.5x    frame= 4535 fps=419 q=-0.0 size=N/A time=00:03:09.14 bitrate=N/A speed=17.5x    frame= 4765 fps=420 q=-0.0 size=N/A time=00:03:18.74 bitrate=N/A speed=17.5x    frame= 5009 fps=422 q=-0.0 size=N/A time=00:03:28.91 bitrate=N/A speed=17.6x    frame= 5234 fps=423 q=-0.0 size=N/A time=00:03:38.30 bitrate=N/A speed=17.7x    frame= 5470 fps=424 q=-0.0 size=N/A time=00:03:48.14 bitrate=N/A speed=17.7x    frame= 5695 fps=425 q=-0.0 size=N/A time=00:03:57.52 bitrate=N/A speed=17.7x    frame= 5900 fps=424 q=-0.0 size=N/A time=00:04:06.07 bitrate=N/A speed=17.7x    frame= 6123 fps=424 q=-0.0 size=N/A time=00:04:15.38 bitrate=N/A speed=17.7x    frame= 6378 fps=426 q=-0.0 size=N/A time=00:04:26.01 bitrate=N/A speed=17.8x    frame= 6627 fps=429 q=-0.0 size=N/A time=00:04:36.40 bitrate=N/A speed=17.9x    frame= 6879 fps=430 q=-0.0 size=N/A time=00:04:46.91 bitrate=N/A speed=17.9x    frame= 7118 fps=432 q=-0.0 size=N/A time=00:04:56.87 bitrate=N/A speed=  18x    frame= 7367 fps=433 q=-0.0 size=N/A time=00:05:07.26 bitrate=N/A speed=18.1x    frame= 7609 fps=434 q=-0.0 size=N/A time=00:05:17.35 bitrate=N/A speed=18.1x    frame= 7849 fps=435 q=-0.0 size=N/A time=00:05:27.36 bitrate=N/A speed=18.1x    frame= 8069 fps=435 q=-0.0 size=N/A time=00:05:36.54 bitrate=N/A speed=18.1x    frame= 8277 fps=434 q=-0.0 size=N/A time=00:05:45.21 bitrate=N/A speed=18.1x    frame= 8518 fps=435 q=-0.0 size=N/A time=00:05:55.27 bitrate=N/A speed=18.1x    frame= 8751 fps=435 q=-0.0 size=N/A time=00:06:04.98 bitrate=N/A speed=18.2x    frame= 8989 fps=436 q=-0.0 size=N/A time=00:06:14.91 bitrate=N/A speed=18.2x    frame= 9242 fps=437 q=-0.0 size=N/A time=00:06:25.46 bitrate=N/A speed=18.2x    frame= 9484 fps=438 q=-0.0 size=N/A time=00:06:35.56 bitrate=N/A speed=18.3x    frame= 9674 fps=436 q=-0.0 size=N/A time=00:06:43.48 bitrate=N/A speed=18.2x    frame= 9898 fps=436 q=-0.0 size=N/A time=00:06:52.82 bitrate=N/A speed=18.2x    frame=10143 fps=437 q=-0.0 size=N/A time=00:07:03.04 bitrate=N/A speed=18.2x    frame=10344 fps=436 q=-0.0 size=N/A time=00:07:11.43 bitrate=N/A speed=18.2x    frame=10558 fps=436 q=-0.0 size=N/A time=00:07:20.35 bitrate=N/A speed=18.2x    frame=10800 fps=436 q=-0.0 size=N/A time=00:07:30.45 bitrate=N/A speed=18.2x    frame=11048 fps=437 q=-0.0 size=N/A time=00:07:40.79 bitrate=N/A speed=18.2x    frame=11298 fps=438 q=-0.0 size=N/A time=00:07:51.22 bitrate=N/A speed=18.3x    frame=11555 fps=439 q=-0.0 size=N/A time=00:08:01.93 bitrate=N/A speed=18.3x    frame=11803 fps=440 q=-0.0 size=N/A time=00:08:12.28 bitrate=N/A speed=18.4x    frame=12026 fps=440 q=-0.0 size=N/A time=00:08:21.58 bitrate=N/A speed=18.4x    frame=12285 fps=441 q=-0.0 size=N/A time=00:08:32.38 bitrate=N/A speed=18.4x    frame=12521 fps=442 q=-0.0 size=N/A time=00:08:42.23 bitrate=N/A speed=18.4x    frame=12761 fps=442 q=-0.0 size=N/A time=00:08:52.24 bitrate=N/A speed=18.4x    frame=13012 fps=443 q=-0.0 size=N/A time=00:09:02.70 bitrate=N/A speed=18.5x    frame=13242 fps=443 q=-0.0 size=N/A time=00:09:12.30 bitrate=N/A speed=18.5x    frame=13481 fps=443 q=-0.0 size=N/A time=00:09:22.27 bitrate=N/A speed=18.5x    frame=13698 fps=443 q=-0.0 size=N/A time=00:09:31.32 bitrate=N/A speed=18.5x    frame=13942 fps=443 q=-0.0 size=N/A time=00:09:41.49 bitrate=N/A speed=18.5x    frame=14174 fps=443 q=-0.0 size=N/A time=00:09:51.17 bitrate=N/A speed=18.5x    frame=14397 fps=443 q=-0.0 size=N/A time=00:10:00.47 bitrate=N/A speed=18.5x    frame=14638 fps=443 q=-0.0 size=N/A time=00:10:10.52 bitrate=N/A speed=18.5x    frame=14879 fps=444 q=-0.0 size=N/A time=00:10:20.57 bitrate=N/A speed=18.5x    frame=15118 fps=444 q=-0.0 size=N/A time=00:10:30.54 bitrate=N/A speed=18.5x    frame=15355 fps=444 q=-0.0 size=N/A time=00:10:40.43 bitrate=N/A speed=18.5x    frame=15582 fps=444 q=-0.0 size=N/A time=00:10:49.89 bitrate=N/A speed=18.5x    frame=15805 fps=444 q=-0.0 size=N/A time=00:10:59.20 bitrate=N/A speed=18.5x    frame=16025 fps=444 q=-0.0 size=N/A time=00:11:08.37 bitrate=N/A speed=18.5x    frame=16249 fps=444 q=-0.0 size=N/A time=00:11:17.71 bitrate=N/A speed=18.5x    frame=16475 fps=444 q=-0.0 size=N/A time=00:11:27.14 bitrate=N/A speed=18.5x    frame=16679 fps=443 q=-0.0 size=N/A time=00:11:35.65 bitrate=N/A speed=18.5x    frame=16936 fps=444 q=-0.0 size=N/A time=00:11:46.37 bitrate=N/A speed=18.5x    frame=17171 fps=444 q=-0.0 size=N/A time=00:11:56.17 bitrate=N/A speed=18.5x    frame=17420 fps=444 q=-0.0 size=N/A time=00:12:06.55 bitrate=N/A speed=18.5x    frame=17646 fps=444 q=-0.0 size=N/A time=00:12:15.98 bitrate=N/A speed=18.5x    frame=17881 fps=444 q=-0.0 size=N/A time=00:12:25.78 bitrate=N/A speed=18.5x    frame=18079 fps=444 q=-0.0 size=N/A time=00:12:34.04 bitrate=N/A speed=18.5x    frame=18343 fps=444 q=-0.0 size=N/A time=00:12:45.05 bitrate=N/A speed=18.5x    frame=18580 fps=445 q=-0.0 size=N/A time=00:12:54.94 bitrate=N/A speed=18.5x    frame=18816 fps=445 q=-0.0 size=N/A time=00:13:04.78 bitrate=N/A speed=18.5x    frame=19025 fps=444 q=-0.0 size=N/A time=00:13:13.50 bitrate=N/A speed=18.5x    frame=19257 fps=444 q=-0.0 size=N/A time=00:13:23.17 bitrate=N/A speed=18.5x    frame=19495 fps=445 q=-0.0 size=N/A time=00:13:33.10 bitrate=N/A speed=18.5x    frame=19721 fps=444 q=-0.0 size=N/A time=00:13:42.53 bitrate=N/A speed=18.5x    frame=19942 fps=444 q=-0.0 size=N/A time=00:13:51.74 bitrate=N/A speed=18.5x    frame=20196 fps=445 q=-0.0 size=N/A time=00:14:02.34 bitrate=N/A speed=18.6x    frame=20396 fps=444 q=-0.0 size=N/A time=00:14:10.68 bitrate=N/A speed=18.5x    frame=20598 fps=444 q=-0.0 size=N/A time=00:14:19.10 bitrate=N/A speed=18.5x    frame=20833 fps=444 q=-0.0 size=N/A time=00:14:28.90 bitrate=N/A speed=18.5x    frame=21069 fps=444 q=-0.0 size=N/A time=00:14:38.75 bitrate=N/A speed=18.5x    frame=21285 fps=444 q=-0.0 size=N/A time=00:14:47.76 bitrate=N/A speed=18.5x    frame=21501 fps=443 q=-0.0 size=N/A time=00:14:56.77 bitrate=N/A speed=18.5x    frame=21762 fps=444 q=-0.0 size=N/A time=00:15:07.65 bitrate=N/A speed=18.5x    frame=21986 fps=444 q=-0.0 size=N/A time=00:15:16.99 bitrate=N/A speed=18.5x    frame=22221 fps=444 q=-0.0 size=N/A time=00:15:26.80 bitrate=N/A speed=18.5x    frame=22490 fps=445 q=-0.0 size=N/A time=00:15:38.02 bitrate=N/A speed=18.6x    frame=22727 fps=445 q=-0.0 size=N/A time=00:15:47.90 bitrate=N/A speed=18.6x    frame=22914 fps=444 q=-0.0 size=N/A time=00:15:55.70 bitrate=N/A speed=18.5x    frame=23086 fps=443 q=-0.0 size=N/A time=00:16:02.87 bitrate=N/A speed=18.5x    frame=23311 fps=443 q=-0.0 size=N/A time=00:16:12.26 bitrate=N/A speed=18.5x    frame=23569 fps=444 q=-0.0 size=N/A time=00:16:23.02 bitrate=N/A speed=18.5x    frame=23795 fps=444 q=-0.0 size=N/A time=00:16:32.44 bitrate=N/A speed=18.5x    frame=24040 fps=444 q=-0.0 size=N/A time=00:16:42.66 bitrate=N/A speed=18.5x    frame=24243 fps=443 q=-0.0 size=N/A time=00:16:51.13 bitrate=N/A speed=18.5x    frame=24458 fps=443 q=-0.0 size=N/A time=00:17:00.10 bitrate=N/A speed=18.5x    frame=24680 fps=443 q=-0.0 size=N/A time=00:17:09.36 bitrate=N/A speed=18.5x    frame=24919 fps=443 q=-0.0 size=N/A time=00:17:19.32 bitrate=N/A speed=18.5x    frame=25156 fps=443 q=-0.0 size=N/A time=00:17:29.21 bitrate=N/A speed=18.5x    frame=25404 fps=444 q=-0.0 size=N/A time=00:17:39.55 bitrate=N/A speed=18.5x    frame=25620 fps=443 q=-0.0 size=N/A time=00:17:48.56 bitrate=N/A speed=18.5x    frame=25864 fps=444 q=-0.0 size=N/A time=00:17:58.74 bitrate=N/A speed=18.5x    frame=26099 fps=444 q=-0.0 size=N/A time=00:18:08.54 bitrate=N/A speed=18.5x    frame=26332 fps=444 q=-0.0 size=N/A time=00:18:18.26 bitrate=N/A speed=18.5x    frame=26566 fps=444 q=-0.0 size=N/A time=00:18:28.02 bitrate=N/A speed=18.5x    frame=26797 fps=444 q=-0.0 size=N/A time=00:18:37.65 bitrate=N/A speed=18.5x    frame=27035 fps=444 q=-0.0 size=N/A time=00:18:47.58 bitrate=N/A speed=18.5x    frame=27267 fps=444 q=-0.0 size=N/A time=00:18:57.26 bitrate=N/A speed=18.5x    frame=27457 fps=444 q=-0.0 size=N/A time=00:19:05.18 bitrate=N/A speed=18.5x    frame=27703 fps=444 q=-0.0 size=N/A time=00:19:15.44 bitrate=N/A speed=18.5x    frame=27910 fps=444 q=-0.0 size=N/A time=00:19:24.07 bitrate=N/A speed=18.5x    frame=28142 fps=444 q=-0.0 size=N/A time=00:19:33.75 bitrate=N/A speed=18.5x    frame=28360 fps=443 q=-0.0 size=N/A time=00:19:42.84 bitrate=N/A speed=18.5x    frame=28610 fps=444 q=-0.0 size=N/A time=00:19:53.27 bitrate=N/A speed=18.5x    frame=28858 fps=444 q=-0.0 size=N/A time=00:20:03.61 bitrate=N/A speed=18.5x    frame=29102 fps=444 q=-0.0 size=N/A time=00:20:13.79 bitrate=N/A speed=18.5x    frame=29358 fps=445 q=-0.0 size=N/A time=00:20:24.47 bitrate=N/A speed=18.5x    frame=29632 fps=445 q=-0.0 size=N/A time=00:20:35.90 bitrate=N/A speed=18.6x    frame=29879 fps=446 q=-0.0 size=N/A time=00:20:46.20 bitrate=N/A speed=18.6x    frame=30137 fps=446 q=-0.0 size=N/A time=00:20:56.96 bitrate=N/A speed=18.6x    frame=30276 fps=445 q=-0.0 size=N/A time=00:21:02.76 bitrate=N/A speed=18.5x    frame=30414 fps=443 q=-0.0 size=N/A time=00:21:08.51 bitrate=N/A speed=18.5x    frame=30659 fps=444 q=-0.0 size=N/A time=00:21:18.73 bitrate=N/A speed=18.5x    frame=30900 fps=444 q=-0.0 size=N/A time=00:21:28.78 bitrate=N/A speed=18.5x    frame=31136 fps=444 q=-0.0 size=N/A time=00:21:38.63 bitrate=N/A speed=18.5x    frame=31356 fps=444 q=-0.0 size=N/A time=00:21:47.80 bitrate=N/A speed=18.5x    frame=31583 fps=444 q=-0.0 size=N/A time=00:21:57.27 bitrate=N/A speed=18.5x    frame=31752 fps=443 q=-0.0 size=N/A time=00:22:04.32 bitrate=N/A speed=18.5x    frame=31967 fps=443 q=-0.0 size=N/A time=00:22:13.29 bitrate=N/A speed=18.5x    frame=32121 fps=442 q=-0.0 size=N/A time=00:22:19.71 bitrate=N/A speed=18.4x    frame=32279 fps=441 q=-0.0 size=N/A time=00:22:26.30 bitrate=N/A speed=18.4x    frame=32444 fps=440 q=-0.0 size=N/A time=00:22:33.18 bitrate=N/A speed=18.3x    frame=32604 fps=439 q=-0.0 size=N/A time=00:22:39.85 bitrate=N/A speed=18.3x    frame=32748 fps=438 q=-0.0 size=N/A time=00:22:45.86 bitrate=N/A speed=18.3x    frame=32906 fps=437 q=-0.0 size=N/A time=00:22:52.45 bitrate=N/A speed=18.2x    frame=33074 fps=436 q=-0.0 size=N/A time=00:22:59.46 bitrate=N/A speed=18.2x    frame=33251 fps=435 q=-0.0 size=N/A time=00:23:06.84 bitrate=N/A speed=18.2x    frame=33448 fps=435 q=-0.0 size=N/A time=00:23:15.06 bitrate=N/A speed=18.1x    frame=33671 fps=435 q=-0.0 size=N/A time=00:23:24.36 bitrate=N/A speed=18.1x    frame=33837 fps=434 q=-0.0 size=N/A time=00:23:31.28 bitrate=N/A speed=18.1x    frame=34047 fps=434 q=-0.0 size=N/A time=00:23:40.04 bitrate=N/A speed=18.1x    [Parsed_psnr_10 @ 00000255912e9c80] PSNR y:48.812074 u:51.708000 v:51.541761 average:49.563498 min:41.016200 max:inf
[out#0/null @ 000002558e8198c0] video:14654KiB audio:266724KiB subtitle:0KiB other streams:0KiB global headers:0KiB muxing overhead: unknown
frame=34105 fps=434 q=-0.0 Lsize=N/A time=00:23:42.46 bitrate=N/A speed=18.1x    
